<?xml version="1.0" standalone="no"?>
<!DOCTYPE svg PUBLIC "-//W3C//DTD SVG 20010904//EN"
 "http://www.w3.org/TR/2001/REC-SVG-20010904/DTD/svg10.dtd">
<svg version="1.0" xmlns="http://www.w3.org/2000/svg"
 width="65.000000pt" height="40.000000pt" viewBox="0 0 65.000000 40.000000"
 preserveAspectRatio="xMidYMid meet">

<g transform="translate(0.000000,40.000000) scale(0.100000,-0.100000)"
fill="#000000" stroke="none">
<path d="M0 200 l0 -200 325 0 325 0 0 200 0 200 -325 0 -325 0 0 -200z m17
-17 c-3 -10 -5 -2 -5 17 0 19 2 27 5 18 2 -10 2 -26 0 -35z m56 16 c-5 -19 -7
-19 -15 -5 -10 18 -2 39 12 31 4 -3 6 -15 3 -26z m147 21 c7 12 10 8 10 -15 0
-23 -3 -27 -10 -15 -9 13 -11 13 -20 0 -7 -12 -10 -8 -10 15 0 23 3 27 10 15
9 -13 11 -13 20 0z m237 -27 c-3 -10 -5 -4 -5 12 0 17 2 24 5 18 2 -7 2 -21 0
-30z m103 2 c0 -7 -5 -17 -12 -21 -8 -5 -9 -2 -5 9 3 9 2 19 -3 22 -5 3 -11
-3 -13 -12 -3 -11 -5 -7 -6 10 -1 25 1 27 19 17 11 -6 20 -17 20 -25z m77 -12
c-3 -10 -5 -2 -5 17 0 19 2 27 5 18 2 -10 2 -26 0 -35z m-514 17 c-3 -11 -7
-20 -9 -20 -2 0 -4 9 -4 20 0 11 4 20 9 20 5 0 7 -9 4 -20z m54 4 c1 -5 -2
-16 -7 -24 -12 -20 -35 2 -26 25 6 17 27 16 33 -1z m106 2 c7 -19 -18 -42 -28
-26 -8 13 1 40 14 40 5 0 11 -6 14 -14z m44 -18 c-3 -7 -5 -2 -5 12 0 14 2 19
5 13 2 -7 2 -19 0 -25z m39 12 c-1 -22 -21 -28 -22 -7 -1 16 5 27 15 27 5 0 8
-9 7 -20z m51 4 c8 -20 -8 -36 -26 -25 -15 10 -8 41 9 41 6 0 13 -7 17 -16z
m90 0 c3 -9 0 -20 -8 -24 -18 -12 -32 -1 -20 14 6 7 8 16 4 19 -3 4 -1 7 6 7
6 0 14 -7 18 -16z m79 7 c-4 -5 -1 -11 6 -13 6 -2 8 -10 4 -16 -4 -7 -12 -10
-17 -7 -13 8 -11 45 2 45 5 0 8 -4 5 -9z m-486 -16 c0 -8 -4 -15 -10 -15 -5 0
-10 7 -10 15 0 8 5 15 10 15 6 0 10 -7 10 -15z m207 -17 c-3 -7 -5 -2 -5 12 0
14 2 19 5 13 2 -7 2 -19 0 -25z"/>
<path d="M261 194 c0 -11 3 -14 6 -6 3 7 2 16 -1 19 -3 4 -6 -2 -5 -13z"/>
</g>
</svg>
